<svg width="105" height="72" viewBox="0 0 105 72" fill="none" xmlns="http://www.w3.org/2000/svg">
<path d="M74.4407 22.0063C74.908 22.0066 75.3708 21.9075 75.8026 21.7147C76.2345 21.5219 76.6268 21.2392 76.9574 20.8826C77.2879 20.5261 77.5501 20.1027 77.729 19.6367C77.9079 19.1708 78 18.6713 78 18.1669V15.3915C78 11.3532 76.8686 8.11522 74.6057 5.67746C72.3429 3.2397 69.3614 2.01388 65.6614 2H39.7329C35.9043 2 32.8257 3.24432 30.4971 5.73297C28.1686 8.22161 27.0029 11.5321 27 15.6644V25.3785C27 29.1484 28.115 32.2076 30.345 34.5559L29.7214 46L42.8143 38.2773H65.2714C69.0557 38.2773 72.1014 37.198 74.4086 35.0393C76.7143 32.8768 77.8671 28.4153 77.8671 24.8974C75.1307 24.8974 72.54 27.8463 70.815 30.1407C70.6002 30.4247 70.3605 30.6857 70.0993 30.9201C68.8821 32.0257 67.2943 32.5777 65.3357 32.5761H39.7264C37.7264 32.5761 36.1164 31.9185 34.8964 30.6032C33.6764 29.288 33.0671 27.5503 33.0686 25.39V22.0063H74.4407ZM33.0686 15.7361C33.0686 13.2937 33.6779 11.3332 34.8964 9.8545C36.115 8.37581 37.725 7.63569 39.7264 7.63415H65.655C67.5264 7.63415 69.0386 8.3388 70.1914 9.74811C71.3443 11.1574 71.9207 13.0362 71.9207 15.3846V16.8024H33.0686V15.7361Z" fill="#C4C4C4" fill-opacity="0.31"/>
<path d="M73.4407 20.461C73.908 20.4613 74.3708 20.36 74.8026 20.1628C75.2345 19.9656 75.6268 19.6764 75.9574 19.3118C76.2879 18.9471 76.5501 18.5141 76.729 18.0376C76.9079 17.561 77 17.0502 77 16.5344V13.6959C77 9.56581 75.8686 6.25421 73.6057 3.76104C71.3429 1.26787 68.3614 0.0141926 64.6614 0H38.7329C34.9043 0 31.8257 1.2726 29.4971 3.81781C27.1686 6.36302 26.0029 9.74874 26 13.975V23.9098C26 27.7655 27.115 30.8941 29.345 33.2958L28.7214 45L41.8143 37.1018H64.2714C68.0557 37.1018 71.1014 35.998 73.4086 33.7902C75.7143 31.5785 76.8671 27.0156 76.8671 23.4178C74.1307 23.4178 71.54 26.4337 69.815 28.7802C69.6002 29.0707 69.3605 29.3376 69.0993 29.5774C67.8821 30.7081 66.2943 31.2726 64.3357 31.271H38.7264C36.7264 31.271 35.1164 30.5985 33.8964 29.2533C32.6764 27.9082 32.0671 26.1309 32.0686 23.9216V20.461H73.4407ZM32.0686 14.0483C32.0686 11.5504 32.6779 9.54531 33.8964 8.03301C35.115 6.52071 36.725 5.76377 38.7264 5.7622H64.655C66.5264 5.7622 68.0386 6.48286 69.1914 7.9242C70.3443 9.36554 70.9207 11.2871 70.9207 13.6888V15.1388H32.0686V14.0483Z" fill="#0CE308"/>
<path d="M2.839 66C2.423 66 2.087 65.8773 1.831 65.632C1.58567 65.376 1.463 65.0453 1.463 64.64V54.8H9.671V56.416H3.335V59.456H9.191V61.088H3.335V64.384H9.671V66H2.839ZM13.597 66.128C12.7863 66.128 12.1303 65.9253 11.629 65.52C11.1383 65.104 10.893 64.5547 10.893 63.872V63.296C10.893 62.624 11.149 62.0853 11.661 61.68C12.1837 61.2747 12.8663 61.072 13.709 61.072H14.701C14.9997 61.072 15.3197 61.1147 15.661 61.2C16.0023 61.2853 16.3063 61.3973 16.573 61.536V60.544C16.573 60.2133 16.4663 59.9467 16.253 59.744C16.0397 59.5413 15.7623 59.44 15.421 59.44H14.077C13.725 59.44 13.4423 59.5253 13.229 59.696C13.0157 59.856 12.909 60.0693 12.909 60.336H11.117C11.117 59.6 11.389 59.008 11.933 58.56C12.477 58.112 13.1917 57.888 14.077 57.888H15.421C16.317 57.888 17.037 58.1333 17.581 58.624C18.125 59.104 18.397 59.744 18.397 60.544V66H16.685V64.992C16.429 65.3333 16.109 65.6107 15.725 65.824C15.341 66.0267 14.9623 66.128 14.589 66.128H13.597ZM14.701 64.688C15.1277 64.688 15.5117 64.5707 15.853 64.336C16.1943 64.0907 16.4343 63.7707 16.573 63.376V62.992C16.3917 62.8427 16.1357 62.7253 15.805 62.64C15.4743 62.544 15.1277 62.496 14.765 62.496H13.757C13.437 62.496 13.1757 62.576 12.973 62.736C12.781 62.896 12.685 63.104 12.685 63.36V63.808C12.685 64.0747 12.7863 64.288 12.989 64.448C13.1917 64.608 13.4583 64.688 13.789 64.688H14.701ZM22.9921 66.128C22.0748 66.128 21.3388 65.8827 20.7841 65.392C20.2295 64.9013 19.9521 64.2507 19.9521 63.44H21.7601C21.7601 63.7813 21.8721 64.0587 22.0961 64.272C22.3201 64.4747 22.6188 64.576 22.9921 64.576H24.4161C24.7788 64.576 25.0615 64.5173 25.2641 64.4C25.4775 64.272 25.5841 64.1013 25.5841 63.888V63.536C25.5841 63.3867 25.5201 63.2587 25.3921 63.152C25.2748 63.0453 25.1095 62.9707 24.8961 62.928L22.1281 62.448C21.5095 62.3413 21.0188 62.1173 20.6561 61.776C20.2935 61.424 20.1121 61.0187 20.1121 60.56V60.032C20.1121 59.3707 20.3735 58.848 20.8961 58.464C21.4295 58.08 22.1601 57.888 23.0881 57.888H24.3681C25.2108 57.888 25.8935 58.1173 26.4161 58.576C26.9388 59.0347 27.2001 59.6373 27.2001 60.384H25.3921C25.3921 60.096 25.2961 59.8667 25.1041 59.696C24.9228 59.5253 24.6775 59.44 24.3681 59.44H23.1041C22.7308 59.44 22.4428 59.4987 22.2401 59.616C22.0375 59.7333 21.9361 59.8987 21.9361 60.112V60.432C21.9361 60.5813 21.9948 60.7093 22.1121 60.816C22.2401 60.9227 22.4055 60.992 22.6081 61.024L25.4721 61.536C26.0588 61.6533 26.5281 61.8773 26.8801 62.208C27.2321 62.5387 27.4081 62.928 27.4081 63.376V63.968C27.4081 64.6293 27.1361 65.1573 26.5921 65.552C26.0481 65.936 25.3228 66.128 24.4161 66.128H22.9921ZM31.9051 69.248C31.0945 69.248 30.4225 69.024 29.8891 68.576C29.3665 68.128 29.0785 67.536 29.0251 66.8H30.8331C30.8651 67.0667 30.9771 67.28 31.1691 67.44C31.3611 67.6 31.6065 67.68 31.9051 67.68H33.2011C33.6065 67.68 33.9265 67.5253 34.1611 67.216C34.4065 66.9173 34.5291 66.512 34.5291 66V64.816C34.2731 65.168 33.9745 65.4453 33.6331 65.648C33.3025 65.8507 32.9665 65.952 32.6251 65.952H31.5851C30.7745 65.952 30.1185 65.6853 29.6171 65.152C29.1265 64.608 28.8811 63.8933 28.8811 63.008V58.016H30.7211V63.04C30.7211 63.4453 30.8171 63.7707 31.0091 64.016C31.2118 64.2613 31.4785 64.384 31.8091 64.384H32.7531C33.1478 64.384 33.5105 64.2187 33.8411 63.888C34.1825 63.5573 34.4118 63.136 34.5291 62.624V58.016H36.3531V66C36.3531 66.992 36.0651 67.7813 35.4891 68.368C34.9238 68.9547 34.1611 69.248 33.2011 69.248H31.9051ZM38.463 54.8H40.159L43.935 61.712L47.615 54.8H49.311V66H47.471V58.272L44.831 63.168C44.6817 63.424 44.5377 63.6107 44.399 63.728C44.2603 63.8347 44.1057 63.888 43.935 63.888H43.407L40.287 58.272V66H38.463V54.8ZM54.3903 66.128C53.7396 66.128 53.1636 66.0053 52.6623 65.76C52.1716 65.5147 51.7876 65.168 51.5103 64.72C51.2436 64.272 51.1103 63.7547 51.1103 63.168V61.024C51.1103 60.4053 51.2436 59.8613 51.5103 59.392C51.7876 58.912 52.1716 58.544 52.6623 58.288C53.1636 58.0213 53.7396 57.888 54.3903 57.888H55.6703C56.6409 57.888 57.4196 58.1707 58.0063 58.736C58.5929 59.3013 58.8863 60.0533 58.8863 60.992V62.592H52.9503V63.168C52.9503 63.5947 53.0783 63.936 53.3343 64.192C53.6009 64.448 53.9529 64.576 54.3903 64.576H55.6223C56.0489 64.576 56.3903 64.4747 56.6463 64.272C56.9129 64.0587 57.0463 63.7813 57.0463 63.44H58.8542C58.8542 64.2507 58.5556 64.9013 57.9583 65.392C57.3609 65.8827 56.5769 66.128 55.6063 66.128H54.3903ZM57.0783 61.216V60.992C57.0783 60.5227 56.9503 60.144 56.6943 59.856C56.4383 59.568 56.1023 59.424 55.6863 59.424H54.3903C53.9529 59.424 53.5956 59.5787 53.3183 59.888C53.0516 60.1867 52.9183 60.5813 52.9183 61.072V61.216H57.0783ZM63.1796 66.128C62.2623 66.128 61.5263 65.8827 60.9716 65.392C60.417 64.9013 60.1396 64.2507 60.1396 63.44H61.9476C61.9476 63.7813 62.0596 64.0587 62.2836 64.272C62.5076 64.4747 62.8063 64.576 63.1796 64.576H64.6036C64.9663 64.576 65.249 64.5173 65.4516 64.4C65.665 64.272 65.7716 64.1013 65.7716 63.888V63.536C65.7716 63.3867 65.7076 63.2587 65.5796 63.152C65.4623 63.0453 65.297 62.9707 65.0836 62.928L62.3156 62.448C61.697 62.3413 61.2063 62.1173 60.8436 61.776C60.481 61.424 60.2996 61.0187 60.2996 60.56V60.032C60.2996 59.3707 60.561 58.848 61.0836 58.464C61.617 58.08 62.3476 57.888 63.2756 57.888H64.5556C65.3983 57.888 66.081 58.1173 66.6036 58.576C67.1263 59.0347 67.3876 59.6373 67.3876 60.384H65.5796C65.5796 60.096 65.4836 59.8667 65.2916 59.696C65.1103 59.5253 64.865 59.44 64.5556 59.44H63.2916C62.9183 59.44 62.6303 59.4987 62.4276 59.616C62.225 59.7333 62.1236 59.8987 62.1236 60.112V60.432C62.1236 60.5813 62.1823 60.7093 62.2996 60.816C62.4276 60.9227 62.593 60.992 62.7956 61.024L65.6596 61.536C66.2463 61.6533 66.7156 61.8773 67.0676 62.208C67.4196 62.5387 67.5956 62.928 67.5956 63.376V63.968C67.5956 64.6293 67.3236 65.1573 66.7796 65.552C66.2356 65.936 65.5103 66.128 64.6036 66.128H63.1796ZM71.8046 66.128C70.8873 66.128 70.1513 65.8827 69.5966 65.392C69.042 64.9013 68.7646 64.2507 68.7646 63.44H70.5726C70.5726 63.7813 70.6846 64.0587 70.9086 64.272C71.1326 64.4747 71.4313 64.576 71.8046 64.576H73.2286C73.5913 64.576 73.874 64.5173 74.0766 64.4C74.29 64.272 74.3966 64.1013 74.3966 63.888V63.536C74.3966 63.3867 74.3326 63.2587 74.2046 63.152C74.0873 63.0453 73.922 62.9707 73.7086 62.928L70.9406 62.448C70.322 62.3413 69.8313 62.1173 69.4686 61.776C69.106 61.424 68.9246 61.0187 68.9246 60.56V60.032C68.9246 59.3707 69.186 58.848 69.7086 58.464C70.242 58.08 70.9726 57.888 71.9006 57.888H73.1806C74.0233 57.888 74.706 58.1173 75.2286 58.576C75.7513 59.0347 76.0126 59.6373 76.0126 60.384H74.2046C74.2046 60.096 74.1086 59.8667 73.9166 59.696C73.7353 59.5253 73.49 59.44 73.1806 59.44H71.9166C71.5433 59.44 71.2553 59.4987 71.0526 59.616C70.85 59.7333 70.7486 59.8987 70.7486 60.112V60.432C70.7486 60.5813 70.8073 60.7093 70.9246 60.816C71.0526 60.9227 71.218 60.992 71.4206 61.024L74.2846 61.536C74.8713 61.6533 75.3406 61.8773 75.6926 62.208C76.0446 62.5387 76.2206 62.928 76.2206 63.376V63.968C76.2206 64.6293 75.9486 65.1573 75.4046 65.552C74.8606 65.936 74.1353 66.128 73.2286 66.128H71.8046ZM80.2376 66.128C79.427 66.128 78.771 65.9253 78.2696 65.52C77.779 65.104 77.5336 64.5547 77.5336 63.872V63.296C77.5336 62.624 77.7896 62.0853 78.3016 61.68C78.8243 61.2747 79.507 61.072 80.3496 61.072H81.3416C81.6403 61.072 81.9603 61.1147 82.3016 61.2C82.643 61.2853 82.947 61.3973 83.2136 61.536V60.544C83.2136 60.2133 83.107 59.9467 82.8936 59.744C82.6803 59.5413 82.403 59.44 82.0616 59.44H80.7176C80.3656 59.44 80.083 59.5253 79.8696 59.696C79.6563 59.856 79.5496 60.0693 79.5496 60.336H77.7576C77.7576 59.6 78.0296 59.008 78.5736 58.56C79.1176 58.112 79.8323 57.888 80.7176 57.888H82.0616C82.9576 57.888 83.6776 58.1333 84.2216 58.624C84.7656 59.104 85.0376 59.744 85.0376 60.544V66H83.3256V64.992C83.0696 65.3333 82.7496 65.6107 82.3656 65.824C81.9816 66.0267 81.603 66.128 81.2296 66.128H80.2376ZM81.3416 64.688C81.7683 64.688 82.1523 64.5707 82.4936 64.336C82.835 64.0907 83.075 63.7707 83.2136 63.376V62.992C83.0323 62.8427 82.7763 62.7253 82.4456 62.64C82.115 62.544 81.7683 62.496 81.4056 62.496H80.3976C80.0776 62.496 79.8163 62.576 79.6136 62.736C79.4216 62.896 79.3256 63.104 79.3256 63.36V63.808C79.3256 64.0747 79.427 64.288 79.6296 64.448C79.8323 64.608 80.099 64.688 80.4296 64.688H81.3416ZM89.9208 69.248C89.1208 69.248 88.4541 69.024 87.9208 68.576C87.3874 68.128 87.0941 67.536 87.0408 66.8H88.8488C88.8808 67.0667 88.9928 67.28 89.1848 67.44C89.3874 67.6 89.6328 67.68 89.9208 67.68H91.3288C91.7341 67.68 92.0541 67.5253 92.2888 67.216C92.5341 66.9173 92.6568 66.512 92.6568 66V65.088C92.4328 65.344 92.1554 65.552 91.8248 65.712C91.5048 65.872 91.1901 65.952 90.8808 65.952H89.7608C88.8434 65.952 88.0968 65.6693 87.5208 65.104C86.9554 64.528 86.6728 63.776 86.6728 62.848V61.136C86.6728 60.496 86.8061 59.9307 87.0728 59.44C87.3394 58.9493 87.7128 58.5707 88.1928 58.304C88.6834 58.0267 89.2434 57.888 89.8728 57.888H90.8648C91.2274 57.888 91.5848 57.9787 91.9368 58.16C92.2888 58.3307 92.5661 58.56 92.7688 58.848V58.016H94.4968V66C94.4968 66.992 94.2088 67.7813 93.6328 68.368C93.0674 68.9547 92.2994 69.248 91.3288 69.248H89.9208ZM90.9768 64.384C91.4354 64.384 91.8194 64.2027 92.1288 63.84C92.4381 63.4773 92.6141 63.008 92.6568 62.432V61.04C92.6141 60.5813 92.4488 60.208 92.1608 59.92C91.8728 59.6213 91.5261 59.472 91.1208 59.472H90.0168C89.5688 59.472 89.2061 59.6373 88.9288 59.968C88.6514 60.288 88.5128 60.7147 88.5128 61.248V62.736C88.5128 63.2267 88.6354 63.6267 88.8808 63.936C89.1368 64.2347 89.4674 64.384 89.8728 64.384H90.9768ZM99.4996 66.128C98.849 66.128 98.273 66.0053 97.7716 65.76C97.281 65.5147 96.897 65.168 96.6196 64.72C96.353 64.272 96.2196 63.7547 96.2196 63.168V61.024C96.2196 60.4053 96.353 59.8613 96.6196 59.392C96.897 58.912 97.281 58.544 97.7716 58.288C98.273 58.0213 98.849 57.888 99.4996 57.888H100.78C101.75 57.888 102.529 58.1707 103.116 58.736C103.702 59.3013 103.996 60.0533 103.996 60.992V62.592H98.0596V63.168C98.0596 63.5947 98.1876 63.936 98.4436 64.192C98.7103 64.448 99.0623 64.576 99.4996 64.576H100.732C101.158 64.576 101.5 64.4747 101.756 64.272C102.022 64.0587 102.156 63.7813 102.156 63.44H103.964C103.964 64.2507 103.665 64.9013 103.068 65.392C102.47 65.8827 101.686 66.128 100.716 66.128H99.4996ZM102.188 61.216V60.992C102.188 60.5227 102.06 60.144 101.804 59.856C101.548 59.568 101.212 59.424 100.796 59.424H99.4996C99.0623 59.424 98.705 59.5787 98.4276 59.888C98.161 60.1867 98.0276 60.5813 98.0276 61.072V61.216H102.188Z" fill="#0CE308"/>
</svg>
